<svg xmlns="http://www.w3.org/2000/svg" xmlns:xlink="http://www.w3.org/1999/xlink" width="106" height="112" viewBox="0 0 106 112"><defs><clipPath id="a"><rect width="106" height="112" transform="translate(375 4029)" fill="#4b4b4b" opacity="0.28"/></clipPath></defs><g transform="translate(-375 -4029)" clip-path="url(#a)"><g transform="translate(375 4032.652)"><g transform="translate(43.199 15.687)"><path d="M67.61,23.7a11.206,11.206,0,0,0-8.726-3.874c-6.262,0-11.859,4.589-12.478,10.237a9.378,9.378,0,0,0,2.1,7.056,11.109,11.109,0,0,0,8.649,3.8c6.424,0,11.939-4.5,12.555-10.231A9.287,9.287,0,0,0,67.61,23.7Zm-2.919,6.362c-.316,2.944-3.766,5.432-7.534,5.432a6.323,6.323,0,0,1-4.875-1.987,3.656,3.656,0,0,1-.855-2.817c.317-2.9,3.8-5.438,7.456-5.438a6.415,6.415,0,0,1,4.949,2.053A3.64,3.64,0,0,1,64.691,30.066Z" transform="translate(-46.349 -19.83)"/></g><g transform="translate(39.137 39.541)"><path d="M64.925,81.563c-.632-.455-2.111-1.52-.917-8.912.031-.161.151-.757.337-1.683.424-2.11,1.213-6.038,2.071-10.417,0-.01,0-.02.006-.03.875-4.733.182-8.874-2-11.975a11.72,11.72,0,0,0-8.795-4.832c-5.469-.47-11.19,3.034-12.942,6.482a3.573,3.573,0,0,0-.117,3.376A4.192,4.192,0,0,0,43.9,55.051c.621.473,2.076,1.582.695,8.959-.129.675-2.057,11.2-2.312,12.689l-.005.03c-.759,4.756-.008,8.913,2.294,11.914a12.1,12.1,0,0,0,9.572,4.6c5.26,0,10.517-3.507,12.118-6.862A3.57,3.57,0,0,0,66.294,83,4.164,4.164,0,0,0,64.925,81.563ZM61.464,59.45c-.853,4.359-1.639,8.271-2.062,10.373-.287,1.429-.345,1.72-.366,1.839,0,.009,0,.019,0,.029-1.284,7.919.015,11.385,1.854,13.324a9.933,9.933,0,0,1-2.042,1.472,9.81,9.81,0,0,1-5.094,1.319,6.718,6.718,0,0,1-5.229-2.55c-1.332-1.79-1.769-4.417-1.264-7.6.275-1.607,2.205-12.13,2.286-12.549,0-.009,0-.018.005-.027,1.477-7.88.262-11.381-1.528-13.371a10.521,10.521,0,0,1,7.2-2.589,6.747,6.747,0,0,1,5.164,2.7C61.674,53.648,62.047,56.286,61.464,59.45Z" transform="translate(-41.99 -43.672)"/></g><g transform="translate(0 0)"><path d="M94.544,87.207a51.026,51.026,0,0,0-4.733-68,53.357,53.357,0,0,0-74.3,0,51.066,51.066,0,0,0,0,73.306A52.822,52.822,0,0,0,52.66,107.573a53.461,53.461,0,0,0,25.069-6.224l18.353,7.378a2.371,2.371,0,0,0,.886.172,2.436,2.436,0,0,0,1.715-.72,2.846,2.846,0,0,0,.716-2.74ZM78.461,95.848a2.373,2.373,0,0,0-2.057.136,48.623,48.623,0,0,1-23.743,6.162c-26.249,0-47.6-20.763-47.6-46.284S26.411,9.576,52.66,9.576s47.6,20.763,47.6,46.284A44.988,44.988,0,0,1,89.845,84.752a2.862,2.862,0,0,0-.536,2.542l3.851,14.462Z" transform="translate(0 -4.15)"/></g></g></g></svg>