<svg xmlns="http://www.w3.org/2000/svg" width="29.619" height="37.05" viewBox="0 0 29.619 37.05"><path d="M13.423-.032a.74.74,0,0,0-.093.023.741.741,0,0,0-.44,1.157l1.574,2.36A9.258,9.258,0,0,0,9.443,10.2q0,.012,0,.023c0,.007,0,.016,0,.023q0,.035,0,.069t0,.046a.741.741,0,0,0,0,.116v1.041A2.906,2.906,0,0,0,7.962,11.1,2.973,2.973,0,0,0,5,14.06v8.886a2.973,2.973,0,0,0,2.962,2.962,2.906,2.906,0,0,0,1.481-.417v1.9a2.233,2.233,0,0,0,2.221,2.221h.74v4.443a2.962,2.962,0,0,0,5.924,0V29.61H21.29v4.443a2.962,2.962,0,0,0,5.924,0V29.61h.74a2.233,2.233,0,0,0,2.221-2.221v-1.9a2.906,2.906,0,0,0,1.481.417,2.973,2.973,0,0,0,2.962-2.962V14.06A2.973,2.973,0,0,0,31.657,11.1a2.906,2.906,0,0,0-1.481.417V10.5a.74.74,0,0,0,0-.208q0-.012,0-.023t0-.023a9.245,9.245,0,0,0-5.021-6.734l1.574-2.36A.742.742,0,1,0,25.5.315L23.766,2.883a12,12,0,0,0-7.914,0L14.117.315a.741.741,0,0,0-.694-.347ZM19.81,3.693a9.742,9.742,0,0,1,3.841.764q.034.013.069.023a8.2,8.2,0,0,1,4.651,5.137H11.248a8.182,8.182,0,0,1,4.559-5.091.751.751,0,0,0,.139-.069A9.755,9.755,0,0,1,19.81,3.693ZM15.737,5.915a1.111,1.111,0,1,0,1.111,1.111A1.109,1.109,0,0,0,15.737,5.915Zm8.145,0a1.111,1.111,0,1,0,1.111,1.111A1.112,1.112,0,0,0,23.882,5.915ZM10.924,11.1H28.7v16.29a.731.731,0,0,1-.74.74H22.17a.741.741,0,0,0-.3,0H13.284a.741.741,0,0,0-.3,0H11.664a.731.731,0,0,1-.74-.74ZM7.962,12.579A1.47,1.47,0,0,1,9.443,14.06v8.886a1.481,1.481,0,1,1-2.962,0V14.06A1.47,1.47,0,0,1,7.962,12.579Zm23.7,0a1.47,1.47,0,0,1,1.481,1.481v8.886a1.481,1.481,0,0,1-2.962,0V14.06A1.47,1.47,0,0,1,31.657,12.579ZM13.886,29.61h2.962v4.443a1.481,1.481,0,0,1-2.962,0Zm8.886,0h2.962v4.443a1.481,1.481,0,0,1-2.962,0Z" transform="translate(-5 0.035)" fill="#fff"/></svg>