<svg xmlns="http://www.w3.org/2000/svg" width="31.1" height="34.063" viewBox="0 0 31.1 34.063"><path d="M19.55,2a3.125,3.125,0,0,0-1.532.4L5.547,9.408A3.012,3.012,0,0,0,4,12.024V26.039a3.012,3.012,0,0,0,1.547,2.616l12.471,7.007a3.13,3.13,0,0,0,3.063,0l12.472-7.007A3.014,3.014,0,0,0,35.1,26.038V12.024a3.012,3.012,0,0,0-1.547-2.616L21.082,2.4A3.125,3.125,0,0,0,19.55,2Zm0,1.481a1.649,1.649,0,0,1,.807.21L32.828,10.7a1.52,1.52,0,0,1,.791,1.326V18.29H32.138V16.81H30.657V18.29H29.176v1.481h1.481v1.481h1.481V19.771h1.481v6.267a1.522,1.522,0,0,1-.793,1.326l-12.47,7.007a1.659,1.659,0,0,1-1.614,0L6.272,27.364a1.518,1.518,0,0,1-.791-1.325V12.024A1.521,1.521,0,0,1,6.272,10.7L18.743,3.691A1.649,1.649,0,0,1,19.55,3.481Zm0,5.924A9.626,9.626,0,1,0,27.2,24.854l.508-.668-4.485-2.6-.4.438a4.443,4.443,0,1,1,0-5.993l.4.438,4.485-2.6-.508-.668A9.586,9.586,0,0,0,19.55,9.4Zm0,1.481a8.037,8.037,0,0,1,5.883,2.6L23.4,14.662a5.859,5.859,0,0,0-3.851-1.555,5.924,5.924,0,0,0,0,11.848A5.859,5.859,0,0,0,23.4,23.4l2.032,1.177a8.037,8.037,0,0,1-5.883,2.6,8.145,8.145,0,0,1,0-16.29Zm5.924,5.924V18.29H23.993v1.481h1.481v1.481h1.481V19.771h1.481V18.29H26.955V16.81Z" transform="translate(-4 -2)" fill="#fff"/></svg>