<svg xmlns="http://www.w3.org/2000/svg" width="30.414" height="34.069" viewBox="0 0 30.414 34.069"><path d="M5.069,2a.741.741,0,0,0-.6.81l2.615,29.2a.741.741,0,0,0,.532.625l11.848,3.4a.741.741,0,0,0,.417,0l11.848-3.4a.741.741,0,0,0,.532-.625l2.615-29.2a.741.741,0,0,0-.74-.81H5.208q-.035,0-.069,0T5.069,2Zm.949,1.481H33.323L30.847,31.364,19.67,34.534,8.493,31.364Zm4.42,4.489a.741.741,0,0,0-.6.81l.995,10.945a.741.741,0,0,0,.717.694H23.372l-.324,3.4-3.355.717-3.4-.717-.116-1.2a.741.741,0,0,0-.74-.694h-3.61a.741.741,0,0,0-.74.81l.417,4.535a.741.741,0,0,0,.509.648l7.358,2.245.093.023a.741.741,0,0,0,.417,0l7.451-2.268a.741.741,0,0,0,.532-.648l.972-11.13a.741.741,0,0,0-.717-.81H15.5l-.185-2.291H28.44a.741.741,0,0,0,.74-.671L29.5,8.78a.741.741,0,0,0-.74-.81H10.576a.741.741,0,0,0-.139,0Zm.949,1.481H27.954l-.185,2.106H14.51a.741.741,0,0,0-.74.81l.347,3.772a.741.741,0,0,0,.717.671H27.306l-.879,9.834L19.67,28.68l-6.757-2.036-.278-3.24h2.129l.093,1.088a.741.741,0,0,0,.579.671l4.119.856a.741.741,0,0,0,.3,0l4.05-.856a.741.741,0,0,0,.578-.671l.44-4.767a.741.741,0,0,0-.74-.787H12.219Z" transform="translate(-4.463 -1.999)" fill="#fff"/></svg>