<svg xmlns="http://www.w3.org/2000/svg" width="31.099" height="33.402" viewBox="0 0 31.099 33.402"><path d="M30.45,2.992,30.264,3a8.2,8.2,0,0,0-5.207,2.453,7.756,7.756,0,0,0-2.545,5.412,7.045,7.045,0,0,0,.122,1.357c-.123-.167-.242-.343-.366-.506A16.372,16.372,0,0,0,9.554,5.219,13.926,13.926,0,0,0,4.5,6.206l-.431.169-.036.46C4.011,7.123,4,7.418,4,7.719a11.386,11.386,0,0,0,1.751,6.123,10.835,10.835,0,0,0,6.5,4.544c2.69.788,4.561,1.255,6.544,1.984.395.145.768.3,1.131.464a23.846,23.846,0,0,1-1.906,2.742h0v0a16.783,16.783,0,0,0-3.644,10.144,14.993,14.993,0,0,0,.119,1.947l.091.723.726-.081a12.992,12.992,0,0,0,8.983-4.608,12.12,12.12,0,0,0,2.661-6.585h.007v-.336c4.011-3.845,7.833-7.971,8.141-13.074v-.026c.1-4.18-1.929-7.355-4.478-8.611Zm-.314,1.536c1.857,1.019,3.559,3.546,3.478,7.1-.247,4.028-3.206,7.629-6.737,11.124a18.268,18.268,0,0,0-.554-3.147,42.1,42.1,0,0,0-2.114-7.184l.016.038a4.777,4.777,0,0,1-.233-1.592,6.361,6.361,0,0,1,2.094-4.355A6.954,6.954,0,0,1,30.136,4.528ZM9.554,6.7A14.987,14.987,0,0,1,21.09,12.61a19.743,19.743,0,0,1,4.217,10.134A18.879,18.879,0,0,0,19.3,18.98c-2.078-.764-3.98-1.237-6.653-2.02l-.007,0h-.009A9.251,9.251,0,0,1,7,13.039,9.957,9.957,0,0,1,5.481,7.719c0-.092.008-.176.01-.266A12.375,12.375,0,0,1,9.554,6.7ZM21.245,21.5a21.384,21.384,0,0,1,4.229,3.283v.194a10.771,10.771,0,0,1-2.339,5.794,11.264,11.264,0,0,1-7.228,3.912c-.021-.319-.059-.644-.058-.956A15.376,15.376,0,0,1,19.174,24.5l0,0A25.182,25.182,0,0,0,21.245,21.5Z" transform="translate(-4 -2.992)" fill="#fff"/></svg>