<svg xmlns="http://www.w3.org/2000/svg" width="47.392" height="32.251" viewBox="0 0 47.392 32.251"><path d="M29.438,42.474a.729.729,0,0,1-.627-.355l-5.52-9.208L12.966,35.718a.729.729,0,0,1-.815-.367L.087,12.675a.729.729,0,0,1,.546-1.068L10.875,10.23a.729.729,0,0,1,.725.347L23.966,31.213l14.37-3.907-4.791-6.768a.729.729,0,0,1,.407-1.133l6.724-1.589a.729.729,0,0,1,.738.253l5.818,7.257a.729.729,0,0,1-.379,1.161l-6.111,1.666L46.09,35.69a.729.729,0,0,1-.355,1.112L29.671,42.421a.729.729,0,0,1-.233.045Zm-4.686-9.962,5,8.344,14.581-5.1-5.093-7.179ZM1.866,12.9l11.29,21.252,9.371-2.542L10.593,11.742Zm33.507,7.676L39.854,26.9l5.574-1.516-4.849-6.038Z" transform="translate(0 -10.223)" fill="#fff"/></svg>